<?xml version="1.0" encoding="utf-8"?>
<!-- Generator: Adobe Illustrator 12.0.0, SVG Export Plug-In . SVG Version: 6.00 Build 51448)  -->
<!DOCTYPE svg PUBLIC "-//W3C//DTD SVG 1.1//EN" "http://www.w3.org/Graphics/SVG/1.1/DTD/svg11.dtd" [
	<!ENTITY ns_svg "http://www.w3.org/2000/svg">
	<!ENTITY ns_xlink "http://www.w3.org/1999/xlink">
]>
<svg  version="1.1" id="Layer_1" xmlns="&ns_svg;" xmlns:xlink="&ns_xlink;" width="147.01" height="28.013"
	 viewBox="0 0 147.01 28.013" overflow="visible" enable-background="new 0 0 147.01 28.013" xml:space="preserve">
<g>
	<g>
		<path fill="#FFFFFF" d="M17.976,22.304l0.002-8.717c0-4.536-2.814-6.883-7.248-6.883c-2.691,0-5.029,1.369-6.373,3.599
			L4.275,7.251H0v20.212h4.514V15.541c0-2.973,1.942-5.319,4.949-5.319c2.651,0,3.92,1.368,3.998,4.537v7.484
			c0.08,3.361,0.568,5.539,4.104,5.539c1.275,0,2.654-0.176,2.654-0.176l-0.003-3.461C18.413,24.534,17.976,24.142,17.976,22.304z
			 M109.961,4.804v2.448h-3.627v3.48h3.627v16.764h4.513V10.732h4.055v-3.48h-4.055V5.183c0-1.106,0.695-1.647,1.978-1.647
			l2.077,0.002V0.001h-3.502C112.641,0.001,109.961,0.632,109.961,4.804z M87.129,7.251h-1.692c-2.771,0-5.47,1.76-5.984,3.909
			l-0.079-3.909h-4.237v20.212h4.514v-9.492c0-4.455,2.893-6.851,6.207-6.851h1.272V7.251z M63.778,10.223
			c2.495,0,4.316,1.328,4.673,3.794h4.515c-0.435-4.964-4.476-7.313-9.226-7.313c-6.732,0-10.096,4.771-10.096,10.87
			c0,5.942,3.522,10.439,9.937,10.439c5.268,0,8.553-2.895,9.385-8.132h-4.515c-0.436,2.895-2.257,4.612-4.87,4.612
			c-3.92,0-5.425-3.558-5.425-6.92C58.156,11.434,61.442,10.223,63.778,10.223z M30.843,6.706c-6.098,0-9.9,4.925-9.9,10.673
			c0,6.215,3.604,10.634,10.02,10.634c4.475,0,8.274-2.464,9.264-6.883H35.95c-0.792,2.228-2.374,3.363-4.988,3.363
			c-3.764,0-5.505-2.814-5.505-5.982h15.046C41.257,12.451,37.296,6.706,30.843,6.706z M25.457,15.579
			c0.119-3.012,2.256-5.356,5.386-5.356c3.048,0,4.989,2.542,5.146,5.356H25.457z M97.03,6.702c-4.514,0-8.986,1.526-9.305,6.729
			h4.516c0.198-2.188,1.979-3.208,4.514-3.208c2.26,0,3.957,0.434,3.957,2.739l0.002,1.777l-5.872,0.922
			c-3.777,0.594-7.867,1.404-7.867,6.449c0,3.948,3.326,5.902,7.009,5.902c2.414,0,5.313-0.752,7.094-2.475l0.109,1.925h4.033
			l0.015-14.897C105.238,8.307,101.03,6.702,97.03,6.702z M95.646,24.493c-2.177,0-4.156-0.227-4.156-2.58
			c0-2.346,1.68-3.016,3.624-3.318l5.599-0.874l0.002,2.94C100.714,23.478,97.625,24.493,95.646,24.493z M48.802,22.538V10.731
			h3.961v-3.48h-3.961V0h-4.514v7.251h-3.412v3.48h3.412L44.28,23.002c-0.002,4.462,3.055,4.753,5.073,4.753
			c1.473,0,3.412-0.227,3.412-0.227v-3.494c0,0-1.465,0.122-1.976,0.122C49.508,24.156,48.802,23.647,48.802,22.538z
			 M126.667,24.156c-1.282,0-1.988-0.509-1.988-1.618V10.731h3.96v-3.48h-3.96V0h-4.514l-0.008,23.002
			c0,4.462,3.054,4.753,5.075,4.753c1.472,0,3.411-0.227,3.411-0.227v-3.494C128.644,24.034,127.177,24.156,126.667,24.156z"/>
	</g>
</g>
<path fill="#ED2C3A" d="M132.083,6.354l3.73-3.683l3.734,3.683l3.729-3.683l3.733,3.683l-7.462,7.37L132.083,6.354z"/>
</svg>
